<svg width="64" height="64" viewBox="0 0 64 64" fill="none" xmlns="http://www.w3.org/2000/svg">
<g clip-path="url(#clip0_7_97)">
<path d="M37.4834 64L37.0484 46.0712C37.0484 45.8786 37.0397 45.432 36.4821 45.2305C35.9246 45.0291 35.6327 45.3677 35.5393 45.4816L25.4248 57.3533L19.1313 51.991L29.2458 40.1193C31.7358 37.1973 35.6794 36.1523 39.2903 37.4542C42.9011 38.7561 45.2684 42.078 45.3181 45.9194L45.753 63.8044L37.4863 64.0058L37.4834 64Z" fill="#7C3AED"/>
<path d="M0.201414 45.7501L0 37.4834L17.9288 37.0484C18.1214 37.0484 18.568 37.0397 18.7694 36.4821C18.9709 35.9246 18.6322 35.6327 18.5184 35.5393L6.64666 25.4248L12.0089 19.1313L23.8807 29.2458C26.8026 31.7358 27.8506 35.6794 26.5458 39.2903C25.2439 42.9011 21.922 45.2684 18.0805 45.3181L0.195576 45.753L0.201414 45.7501Z" fill="#7C3AED"/>
<path d="M27.842 27.1004C26.7999 27.1004 25.7403 26.9194 24.7098 26.5487C21.099 25.2468 18.7316 21.9249 18.682 18.0835L18.25 0.201414L26.5167 0L26.9517 17.9288C26.9517 18.1214 26.9604 18.568 27.518 18.7694C28.0755 18.9709 28.3645 18.6322 28.4608 18.5184L38.5753 6.64666L44.8687 12.0089L34.7543 23.8807C32.9766 25.9678 30.4545 27.1004 27.842 27.1004Z" fill="#7C3AED"/>
<path d="M51.9882 44.8686L40.1164 34.7541C37.1945 32.2642 36.1465 28.3235 37.4513 24.7097C38.7532 21.0989 42.0751 18.7315 45.9166 18.6819L63.8015 18.2469L64.003 26.5137L46.0742 26.9486C45.8815 26.9486 45.4349 26.9574 45.2335 27.5149C45.0321 28.0724 45.3707 28.3643 45.4845 28.4578L57.3563 38.5722L51.994 44.8657L51.9882 44.8686Z" fill="#7C3AED"/>
</g>
<defs>
<clipPath id="clip0_7_97">
<rect width="64" height="64" fill="white"/>
</clipPath>
</defs>
</svg>
