<?xml version="1.0" encoding="UTF-8"?>
<svg id="_レイヤー_2" data-name="レイヤー 2" xmlns="http://www.w3.org/2000/svg" viewBox="0 0 971.31 219.25">
  <defs>
    <style>
      .cls-1 {
        fill: #222123;
      }

      .cls-2 {
        fill: #7c3aed;
      }
    </style>
  </defs>
  <g id="_レイヤー_1-2" data-name="レイヤー 1">
    <g>
      <path class="cls-1" d="M640.18,111.42c-2.28-5.63-5.36-10.23-9.19-13.83-3.84-3.59-8.33-6.26-13.45-7.95-5.15-1.73-10.51-2.59-16.07-2.59-8.99,0-16.9,1.94-23.74,5.77-6.84,3.84-11.99,10.91-14.69,18.53v-3.46l-.24-17.9h-22.05v116.1h22.05v-59.76c0-6.71.8-12.48,2.45-17.39,1.62-4.91,3.91-8.95,6.84-12.13,2.94-3.18,6.36-5.5,10.3-6.98,3.91-1.45,8.16-2.21,12.72-2.21,3.42,0,6.74.55,9.92,1.62,3.18,1.04,6.01,2.77,8.47,5.12,2.42,2.38,4.39,5.5,5.88,9.33,1.45,3.84,2.18,8.43,2.18,13.83v68.57h22.05v-74.69c0-7.67-1.14-14.34-3.42-19.98Z"/>
      <path class="cls-1" d="M720.02,187.73c-2.77.48-5.46.73-8.09.73-4.25,0-7.47-.76-9.68-2.32-2.18-1.56-3.84-3.59-4.87-6.12-1.07-2.56-1.69-5.39-1.83-8.57-.17-3.21-.28-6.43-.28-9.68v-52.67h31.63v-19.11h-31.63v-26.7h-22.02v26.7h-25.47v19.11h25.47v60.49c0,4.74.21,9.44.59,14.1.41,4.67,1.73,8.85,3.94,12.62s5.63,6.81,10.27,9.19c4.67,2.35,11.23,3.53,19.74,3.53,2.28,0,5.5-.28,9.68-.83,4.15-.59,7.53-1.62,10.16-3.08l.33-22.97c-1.41,3.12-5.17,5.1-7.94,5.58Z"/>
      <path class="cls-1" d="M852.52,207.91h-13.72c-4.08,0-7.71-.73-10.9-2.2s-5.68-3.83-7.47-7.1c-1.8-3.26-2.69-7.67-2.69-13.23v-49.23l-.74-3.18c0-7.51-1.84-13.84-5.51-18.98s-10.49-7.72-20.45-7.72c-8.49,0-15.55,2.17-21.19,6.49-5.63,4.33-10,9.76-13.1,16.29l-14.7-14.94c2.61-4.08,6.25-8.21,10.9-12.37,4.65-4.16,10.41-7.63,17.27-10.41,6.86-2.77,14.61-4.16,23.27-4.16,14.37,0,25.43,4,33.19,12,7.75,8,11.63,19.19,11.63,33.56v48.5c0,2.61.57,4.45,1.71,5.51,1.14,1.06,2.86,1.59,5.14,1.59h7.35v19.6ZM776.34,210.35c-9.8,0-17.43-2.61-22.9-7.84-5.47-5.22-8.21-11.76-8.21-19.6s2.7-14.37,8.08-19.59c5.39-5.22,12.33-9.8,20.82-13.72l46.78-21.06,2.94,14.45-40.9,19.35c-5.55,2.61-9.64,5.23-12.25,7.84-2.61,2.61-3.92,5.8-3.92,9.55,0,4.08,1.39,7.27,4.16,9.55,2.77,2.29,6.94,3.43,12.49,3.43,5.06,0,9.68-.77,13.84-2.33,4.16-1.55,7.75-3.71,10.78-6.49,3.02-2.77,5.39-5.96,7.1-9.55,1.71-3.59,2.57-7.59,2.57-12l.73,11.51c-.98,5.39-3.1,10.9-6.37,16.53-3.27,5.63-7.84,10.37-13.72,14.21-5.88,3.83-13.23,5.75-22.04,5.75Z"/>
      <path class="cls-1" d="M881.18,207.91h-24.49l42.62-59.76-39.68-58.54h24.49l20.57,31.35,10.29,15.92,10.29-15.67,21.31-31.6h24.74l-42.13,57.81,40.17,60.5h-24.49l-20.08-30.86-11.51-17.39-11.51,17.39-20.57,30.86Z"/>
      <path class="cls-1" d="M469.85,209.39c-11.11,0-20.86-2.53-29.27-7.59-8.41-5.06-15.03-12.21-19.84-21.43-4.82-9.22-7.23-20.12-7.23-32.7s2.41-23.43,7.23-32.58c4.81-9.14,11.43-16.25,19.84-21.31,8.41-5.06,18.16-7.59,29.27-7.59s20.57,2.53,28.9,7.59c8.33,5.06,14.86,12.17,19.59,21.31,4.74,9.15,7.1,20,7.1,32.58s-2.37,23.48-7.1,32.7c-4.74,9.23-11.27,16.37-19.59,21.43-8.33,5.06-17.97,7.59-28.9,7.59ZM469.61,191.51c6.86,0,12.86-1.59,18-4.78,5.14-3.18,9.19-8,12.12-14.45,2.94-6.45,4.41-14.66,4.41-24.62s-1.47-18.16-4.41-24.62c-2.94-6.45-6.98-11.27-12.12-14.45-5.14-3.18-11.14-4.78-18-4.78s-12.41,1.59-17.64,4.78c-5.23,3.18-9.27,8-12.12,14.45-2.86,6.45-4.29,14.66-4.29,24.62s1.43,18.17,4.29,24.62c2.86,6.45,6.9,11.27,12.12,14.45,5.22,3.18,11.1,4.78,17.64,4.78Z"/>
      <g>
        <g id="_リピートラジアル_" data-name="&amp;lt;リピートラジアル&amp;gt;">
          <path class="cls-2" d="M128.41,219.25l-1.49-61.42c0-.66-.03-2.19-1.94-2.88-1.91-.69-2.91.47-3.23.86l-34.65,40.67-21.56-18.37,34.65-40.67c8.53-10.01,22.04-13.59,34.41-9.13,12.37,4.46,20.48,15.84,20.65,29l1.49,61.27-28.32.69Z"/>
        </g>
        <g id="_リピートラジアル_-2" data-name="&amp;lt;リピートラジアル&amp;gt;">
          <path class="cls-2" d="M.69,156.73l-.69-28.32,61.42-1.49c.66,0,2.19-.03,2.88-1.94.69-1.91-.47-2.91-.86-3.23l-40.67-34.65,18.37-21.56,40.67,34.65c10.01,8.53,13.6,22.04,9.13,34.41-4.46,12.37-15.84,20.48-29,20.65l-61.27,1.49Z"/>
        </g>
        <g id="_リピートラジアル_-3" data-name="&amp;lt;リピートラジアル&amp;gt;">
          <path class="cls-2" d="M95.38,92.84c-3.57,0-7.2-.62-10.73-1.89-12.37-4.46-20.48-15.84-20.65-29L62.52.69l28.32-.69,1.49,61.42c0,.66.03,2.19,1.94,2.88,1.91.69,2.9-.47,3.23-.86l34.65-40.67,21.56,18.37-34.65,40.67c-6.09,7.15-14.73,11.03-23.68,11.03Z"/>
        </g>
        <g id="_リピートラジアル_-4" data-name="&amp;lt;リピートラジアル&amp;gt;">
          <path class="cls-2" d="M178.1,153.71l-40.67-34.65c-10.01-8.53-13.6-22.03-9.13-34.41,4.46-12.37,15.84-20.48,29-20.65l61.27-1.49.69,28.32-61.42,1.49c-.66,0-2.19.03-2.88,1.94-.69,1.91.47,2.91.86,3.23l40.67,34.65-18.37,21.56Z"/>
        </g>
      </g>
      <path class="cls-1" d="M386.21,69.04c-4.9-6.37-11.11-11.27-18.61-14.7-7.51-3.43-15.27-5.14-23.27-5.14-9.8,0-18.66,1.84-26.58,5.51-7.92,3.67-14.7,8.7-20.33,15.06-5.63,6.37-10,13.84-13.1,22.41-3.1,8.57-4.65,17.76-4.65,27.55,0,9.15,1.47,17.8,4.41,25.96,2.94,8.17,7.18,15.35,12.74,21.55,5.55,6.21,12.33,11.11,20.33,14.7,8,3.59,17.06,5.39,27.19,5.39s18.7-2.04,26.21-6.12c7.51-4.08,13.88-9.8,19.1-17.14l19.84,14.94c-1.31,1.8-3.59,4.37-6.86,7.72-3.27,3.35-7.59,6.7-12.98,10.04-5.39,3.35-11.88,6.29-19.47,8.82-7.59,2.53-16.37,3.8-26.33,3.8-13.72,0-26.09-2.61-37.11-7.84-11.02-5.22-20.41-12.08-28.17-20.57-7.76-8.49-13.68-18.08-17.76-28.78-4.08-10.69-6.12-21.51-6.12-32.46,0-13.39,2.2-25.76,6.61-37.11,4.41-11.35,10.57-21.15,18.49-29.39,7.92-8.24,17.43-14.66,28.53-19.23,11.1-4.57,23.35-6.86,36.74-6.86,11.43,0,22.66,2.2,33.68,6.61,11.02,4.41,20.04,11.19,27.06,20.33l-19.6,14.94Z"/>
      <rect class="cls-1" x="762.94" y="45.54" width="21.06" height="24"/>
      <rect class="cls-1" x="799.19" y="45.54" width="21.06" height="24"/>
    </g>
  </g>
</svg>