<?xml version="1.0" encoding="UTF-8"?>
<svg id="_レイヤー_2" data-name="レイヤー 2" xmlns="http://www.w3.org/2000/svg" viewBox="0 0 219.25 219.25">
  <defs>
    <style>
      .cls-1 {
        fill: #7c3aed;
      }
    </style>
  </defs>
  <g id="_レイヤー_1-2" data-name="レイヤー 1">
    <g>
      <g id="_リピートラジアル_" data-name="&amp;lt;リピートラジアル&amp;gt;">
        <path class="cls-1" d="M128.41,219.25l-1.49-61.42c0-.66-.03-2.19-1.94-2.88-1.91-.69-2.91.47-3.23.86l-34.65,40.67-21.56-18.37,34.65-40.67c8.53-10.01,22.04-13.59,34.41-9.13,12.37,4.46,20.48,15.84,20.65,29l1.49,61.27-28.32.69Z"/>
      </g>
      <g id="_リピートラジアル_-2" data-name="&amp;lt;リピートラジアル&amp;gt;">
        <path class="cls-1" d="M.69,156.73l-.69-28.32,61.42-1.49c.66,0,2.19-.03,2.88-1.94.69-1.91-.47-2.91-.86-3.23l-40.67-34.65,18.37-21.56,40.67,34.65c10.01,8.53,13.6,22.04,9.13,34.41-4.46,12.37-15.84,20.48-29,20.65l-61.27,1.49Z"/>
      </g>
      <g id="_リピートラジアル_-3" data-name="&amp;lt;リピートラジアル&amp;gt;">
        <path class="cls-1" d="M95.38,92.84c-3.57,0-7.2-.62-10.73-1.89-12.37-4.46-20.48-15.84-20.65-29L62.52.69l28.32-.69,1.49,61.42c0,.66.03,2.19,1.94,2.88,1.91.69,2.9-.47,3.23-.86l34.65-40.67,21.56,18.37-34.65,40.67c-6.09,7.15-14.73,11.03-23.68,11.03Z"/>
      </g>
      <g id="_リピートラジアル_-4" data-name="&amp;lt;リピートラジアル&amp;gt;">
        <path class="cls-1" d="M178.1,153.71l-40.67-34.65c-10.01-8.53-13.6-22.03-9.13-34.41,4.46-12.37,15.84-20.48,29-20.65l61.27-1.49.69,28.32-61.42,1.49c-.66,0-2.19.03-2.88,1.94-.69,1.91.47,2.91.86,3.23l40.67,34.65-18.37,21.56Z"/>
      </g>
    </g>
  </g>
</svg>